# xmcd
#
# Track frame offsets:
#	150
#	16232
#	39129
#	59378
#	80166
#	103257
#	122248
#	137440
#	155608
#	176616
#	195298
#	213234
#
# Disc length: 3018 seconds
#
# Revision: 1
# Processed by: cddbd v1.5.2PL0 Copyright (c) Steve Scherf et al.
# Submitted via: audiograbber 1.83.01
#
DISCID=9b0bc80c
DTITLE=Debbie Cassell - The Boatman's White Dog
DYEAR=2007
DGENRE=Alternative
TTITLE0=The Woods
TTITLE1=Cybermesa
TTITLE2=Want U So Bad
TTITLE3=Snowblind
TTITLE4=Crossing The Water
TTITLE5=The Boatman's White Dog
TTITLE6=Red Beret Blues
TTITLE7=The Brightest Star
TTITLE8=Silent Woman
TTITLE9=Train Between Stations
TTITLE10=Neverneverland
TTITLE11=Axel's Lullaby
EXTD=
EXTT0=
EXTT1=
EXTT2=
EXTT3=
EXTT4=
EXTT5=
EXTT6=
EXTT7=
EXTT8=
EXTT9=
EXTT10=
EXTT11=
PLAYORDER=
